<svg width="50" height="50" viewBox="0 0 50 50" fill="none" xmlns="http://www.w3.org/2000/svg">
<mask id="path-1-outside-1_51_235" maskUnits="userSpaceOnUse" x="4.63867" y="4.64038" width="45" height="41" fill="black">
<rect fill="white" x="4.63867" y="4.64038" width="45" height="41"/>
<path d="M48.0471 29.6875C48.0471 29.9983 47.9236 30.2963 47.7038 30.5161C47.4841 30.7359 47.186 30.8593 46.8752 30.8593H43.3596V34.375C43.3596 34.6858 43.2361 34.9838 43.0163 35.2036C42.7966 35.4234 42.4985 35.5468 42.1877 35.5468C41.8769 35.5468 41.5788 35.4234 41.3591 35.2036C41.1393 34.9838 41.0158 34.6858 41.0158 34.375V30.8593H37.5002C37.1894 30.8593 36.8913 30.7359 36.6716 30.5161C36.4518 30.2963 36.3283 29.9983 36.3283 29.6875C36.3283 29.3767 36.4518 29.0786 36.6716 28.8588C36.8913 28.639 37.1894 28.5156 37.5002 28.5156H41.0158V25C41.0158 24.6892 41.1393 24.3911 41.3591 24.1713C41.5788 23.9515 41.8769 23.8281 42.1877 23.8281C42.4985 23.8281 42.7966 23.9515 43.0163 24.1713C43.2361 24.3911 43.3596 24.6892 43.3596 25V28.5156H46.8752C47.186 28.5156 47.4841 28.639 47.7038 28.8588C47.9236 29.0786 48.0471 29.3767 48.0471 29.6875ZM10.9377 13.6718H14.4533V17.1875C14.4533 17.4983 14.5768 17.7963 14.7966 18.0161C15.0163 18.2359 15.3144 18.3593 15.6252 18.3593C15.936 18.3593 16.2341 18.2359 16.4538 18.0161C16.6736 17.7963 16.7971 17.4983 16.7971 17.1875V13.6718H20.3127C20.6235 13.6718 20.9216 13.5484 21.1413 13.3286C21.3611 13.1088 21.4846 12.8108 21.4846 12.5C21.4846 12.1892 21.3611 11.8911 21.1413 11.6713C20.9216 11.4515 20.6235 11.3281 20.3127 11.3281H16.7971V7.81245C16.7971 7.50165 16.6736 7.20358 16.4538 6.98381C16.2341 6.76404 15.936 6.64058 15.6252 6.64058C15.3144 6.64058 15.0163 6.76404 14.7966 6.98381C14.5768 7.20358 14.4533 7.50165 14.4533 7.81245V11.3281H10.9377C10.6269 11.3281 10.3288 11.4515 10.1091 11.6713C9.88929 11.8911 9.76582 12.1892 9.76582 12.5C9.76582 12.8108 9.88929 13.1088 10.1091 13.3286C10.3288 13.5484 10.6269 13.6718 10.9377 13.6718ZM35.9377 37.8906H33.9846V35.9375C33.9846 35.6267 33.8611 35.3286 33.6413 35.1088C33.4216 34.889 33.1235 34.7656 32.8127 34.7656C32.5019 34.7656 32.2038 34.889 31.9841 35.1088C31.7643 35.3286 31.6408 35.6267 31.6408 35.9375V37.8906H29.6877C29.3769 37.8906 29.0788 38.014 28.8591 38.2338C28.6393 38.4536 28.5158 38.7517 28.5158 39.0625C28.5158 39.3733 28.6393 39.6713 28.8591 39.8911C29.0788 40.1109 29.3769 40.2343 29.6877 40.2343H31.6408V42.1875C31.6408 42.4983 31.7643 42.7963 31.9841 43.0161C32.2038 43.2359 32.5019 43.3593 32.8127 43.3593C33.1235 43.3593 33.4216 43.2359 33.6413 43.0161C33.8611 42.7963 33.9846 42.4983 33.9846 42.1875V40.2343H35.9377C36.2485 40.2343 36.5466 40.1109 36.7663 39.8911C36.9861 39.6713 37.1096 39.3733 37.1096 39.0625C37.1096 38.7517 36.9861 38.4536 36.7663 38.2338C36.5466 38.014 36.2485 37.8906 35.9377 37.8906ZM42.5588 15.3496L15.3479 42.5585C15.0939 42.8125 14.7925 43.0139 14.4607 43.1514C14.129 43.2888 13.7734 43.3595 13.4143 43.3595C13.0552 43.3595 12.6996 43.2888 12.3678 43.1514C12.036 43.0139 11.7346 42.8125 11.4807 42.5585L7.43965 38.5175C7.18571 38.2636 6.98427 37.9622 6.84684 37.6304C6.70941 37.2986 6.63867 36.943 6.63867 36.5839C6.63867 36.2248 6.70941 35.8692 6.84684 35.5375C6.98427 35.2057 7.18571 34.9043 7.43965 34.6503L34.6506 7.44136C34.9045 7.18742 35.2059 6.98598 35.5377 6.84855C35.8695 6.71112 36.2251 6.64038 36.5842 6.64038C36.9433 6.64038 37.2989 6.71112 37.6306 6.84855C37.9624 6.98598 38.2639 7.18742 38.5178 7.44136L42.5588 11.4824C42.8127 11.7363 43.0142 12.0377 43.1516 12.3695C43.289 12.7013 43.3598 13.0569 43.3598 13.416C43.3598 13.7751 43.289 14.1307 43.1516 14.4624C43.0142 14.7942 42.8127 15.0956 42.5588 15.3496ZM32.717 21.875L28.1252 17.2832L9.09785 36.3085C9.06153 36.3448 9.03272 36.3879 9.01306 36.4353C8.99341 36.4827 8.98329 36.5336 8.98329 36.5849C8.98329 36.6362 8.99341 36.6871 9.01306 36.7345C9.03272 36.7819 9.06153 36.825 9.09785 36.8613L13.1389 40.9003C13.2121 40.9731 13.3111 41.0139 13.4143 41.0139C13.5175 41.0139 13.6165 40.9731 13.6896 40.9003L32.717 21.875ZM40.9006 13.1386L36.8615 9.09956C36.8252 9.06324 36.7822 9.03443 36.7347 9.01477C36.6873 8.99512 36.6365 8.985 36.5852 8.985C36.5338 8.985 36.483 8.99512 36.4356 9.01477C36.3881 9.03443 36.3451 9.06324 36.3088 9.09956L29.7814 15.625L34.3752 20.2187L40.9006 13.6914C40.9369 13.6551 40.9657 13.612 40.9854 13.5646C41.005 13.5172 41.0152 13.4663 41.0152 13.415C41.0152 13.3637 41.005 13.3128 40.9854 13.2654C40.9657 13.218 40.9369 13.1749 40.9006 13.1386Z"/>
</mask>
<path d="M48.0471 29.6875C48.0471 29.9983 47.9236 30.2963 47.7038 30.5161C47.4841 30.7359 47.186 30.8593 46.8752 30.8593H43.3596V34.375C43.3596 34.6858 43.2361 34.9838 43.0163 35.2036C42.7966 35.4234 42.4985 35.5468 42.1877 35.5468C41.8769 35.5468 41.5788 35.4234 41.3591 35.2036C41.1393 34.9838 41.0158 34.6858 41.0158 34.375V30.8593H37.5002C37.1894 30.8593 36.8913 30.7359 36.6716 30.5161C36.4518 30.2963 36.3283 29.9983 36.3283 29.6875C36.3283 29.3767 36.4518 29.0786 36.6716 28.8588C36.8913 28.639 37.1894 28.5156 37.5002 28.5156H41.0158V25C41.0158 24.6892 41.1393 24.3911 41.3591 24.1713C41.5788 23.9515 41.8769 23.8281 42.1877 23.8281C42.4985 23.8281 42.7966 23.9515 43.0163 24.1713C43.2361 24.3911 43.3596 24.6892 43.3596 25V28.5156H46.8752C47.186 28.5156 47.4841 28.639 47.7038 28.8588C47.9236 29.0786 48.0471 29.3767 48.0471 29.6875ZM10.9377 13.6718H14.4533V17.1875C14.4533 17.4983 14.5768 17.7963 14.7966 18.0161C15.0163 18.2359 15.3144 18.3593 15.6252 18.3593C15.936 18.3593 16.2341 18.2359 16.4538 18.0161C16.6736 17.7963 16.7971 17.4983 16.7971 17.1875V13.6718H20.3127C20.6235 13.6718 20.9216 13.5484 21.1413 13.3286C21.3611 13.1088 21.4846 12.8108 21.4846 12.5C21.4846 12.1892 21.3611 11.8911 21.1413 11.6713C20.9216 11.4515 20.6235 11.3281 20.3127 11.3281H16.7971V7.81245C16.7971 7.50165 16.6736 7.20358 16.4538 6.98381C16.2341 6.76404 15.936 6.64058 15.6252 6.64058C15.3144 6.64058 15.0163 6.76404 14.7966 6.98381C14.5768 7.20358 14.4533 7.50165 14.4533 7.81245V11.3281H10.9377C10.6269 11.3281 10.3288 11.4515 10.1091 11.6713C9.88929 11.8911 9.76582 12.1892 9.76582 12.5C9.76582 12.8108 9.88929 13.1088 10.1091 13.3286C10.3288 13.5484 10.6269 13.6718 10.9377 13.6718ZM35.9377 37.8906H33.9846V35.9375C33.9846 35.6267 33.8611 35.3286 33.6413 35.1088C33.4216 34.889 33.1235 34.7656 32.8127 34.7656C32.5019 34.7656 32.2038 34.889 31.9841 35.1088C31.7643 35.3286 31.6408 35.6267 31.6408 35.9375V37.8906H29.6877C29.3769 37.8906 29.0788 38.014 28.8591 38.2338C28.6393 38.4536 28.5158 38.7517 28.5158 39.0625C28.5158 39.3733 28.6393 39.6713 28.8591 39.8911C29.0788 40.1109 29.3769 40.2343 29.6877 40.2343H31.6408V42.1875C31.6408 42.4983 31.7643 42.7963 31.9841 43.0161C32.2038 43.2359 32.5019 43.3593 32.8127 43.3593C33.1235 43.3593 33.4216 43.2359 33.6413 43.0161C33.8611 42.7963 33.9846 42.4983 33.9846 42.1875V40.2343H35.9377C36.2485 40.2343 36.5466 40.1109 36.7663 39.8911C36.9861 39.6713 37.1096 39.3733 37.1096 39.0625C37.1096 38.7517 36.9861 38.4536 36.7663 38.2338C36.5466 38.014 36.2485 37.8906 35.9377 37.8906ZM42.5588 15.3496L15.3479 42.5585C15.0939 42.8125 14.7925 43.0139 14.4607 43.1514C14.129 43.2888 13.7734 43.3595 13.4143 43.3595C13.0552 43.3595 12.6996 43.2888 12.3678 43.1514C12.036 43.0139 11.7346 42.8125 11.4807 42.5585L7.43965 38.5175C7.18571 38.2636 6.98427 37.9622 6.84684 37.6304C6.70941 37.2986 6.63867 36.943 6.63867 36.5839C6.63867 36.2248 6.70941 35.8692 6.84684 35.5375C6.98427 35.2057 7.18571 34.9043 7.43965 34.6503L34.6506 7.44136C34.9045 7.18742 35.2059 6.98598 35.5377 6.84855C35.8695 6.71112 36.2251 6.64038 36.5842 6.64038C36.9433 6.64038 37.2989 6.71112 37.6306 6.84855C37.9624 6.98598 38.2639 7.18742 38.5178 7.44136L42.5588 11.4824C42.8127 11.7363 43.0142 12.0377 43.1516 12.3695C43.289 12.7013 43.3598 13.0569 43.3598 13.416C43.3598 13.7751 43.289 14.1307 43.1516 14.4624C43.0142 14.7942 42.8127 15.0956 42.5588 15.3496ZM32.717 21.875L28.1252 17.2832L9.09785 36.3085C9.06153 36.3448 9.03272 36.3879 9.01306 36.4353C8.99341 36.4827 8.98329 36.5336 8.98329 36.5849C8.98329 36.6362 8.99341 36.6871 9.01306 36.7345C9.03272 36.7819 9.06153 36.825 9.09785 36.8613L13.1389 40.9003C13.2121 40.9731 13.3111 41.0139 13.4143 41.0139C13.5175 41.0139 13.6165 40.9731 13.6896 40.9003L32.717 21.875ZM40.9006 13.1386L36.8615 9.09956C36.8252 9.06324 36.7822 9.03443 36.7347 9.01477C36.6873 8.99512 36.6365 8.985 36.5852 8.985C36.5338 8.985 36.483 8.99512 36.4356 9.01477C36.3881 9.03443 36.3451 9.06324 36.3088 9.09956L29.7814 15.625L34.3752 20.2187L40.9006 13.6914C40.9369 13.6551 40.9657 13.612 40.9854 13.5646C41.005 13.5172 41.0152 13.4663 41.0152 13.415C41.0152 13.3637 41.005 13.3128 40.9854 13.2654C40.9657 13.218 40.9369 13.1749 40.9006 13.1386Z" fill="white"/>
<path d="M48.0471 29.6875C48.0471 29.9983 47.9236 30.2963 47.7038 30.5161C47.4841 30.7359 47.186 30.8593 46.8752 30.8593H43.3596V34.375C43.3596 34.6858 43.2361 34.9838 43.0163 35.2036C42.7966 35.4234 42.4985 35.5468 42.1877 35.5468C41.8769 35.5468 41.5788 35.4234 41.3591 35.2036C41.1393 34.9838 41.0158 34.6858 41.0158 34.375V30.8593H37.5002C37.1894 30.8593 36.8913 30.7359 36.6716 30.5161C36.4518 30.2963 36.3283 29.9983 36.3283 29.6875C36.3283 29.3767 36.4518 29.0786 36.6716 28.8588C36.8913 28.639 37.1894 28.5156 37.5002 28.5156H41.0158V25C41.0158 24.6892 41.1393 24.3911 41.3591 24.1713C41.5788 23.9515 41.8769 23.8281 42.1877 23.8281C42.4985 23.8281 42.7966 23.9515 43.0163 24.1713C43.2361 24.3911 43.3596 24.6892 43.3596 25V28.5156H46.8752C47.186 28.5156 47.4841 28.639 47.7038 28.8588C47.9236 29.0786 48.0471 29.3767 48.0471 29.6875ZM10.9377 13.6718H14.4533V17.1875C14.4533 17.4983 14.5768 17.7963 14.7966 18.0161C15.0163 18.2359 15.3144 18.3593 15.6252 18.3593C15.936 18.3593 16.2341 18.2359 16.4538 18.0161C16.6736 17.7963 16.7971 17.4983 16.7971 17.1875V13.6718H20.3127C20.6235 13.6718 20.9216 13.5484 21.1413 13.3286C21.3611 13.1088 21.4846 12.8108 21.4846 12.5C21.4846 12.1892 21.3611 11.8911 21.1413 11.6713C20.9216 11.4515 20.6235 11.3281 20.3127 11.3281H16.7971V7.81245C16.7971 7.50165 16.6736 7.20358 16.4538 6.98381C16.2341 6.76404 15.936 6.64058 15.6252 6.64058C15.3144 6.64058 15.0163 6.76404 14.7966 6.98381C14.5768 7.20358 14.4533 7.50165 14.4533 7.81245V11.3281H10.9377C10.6269 11.3281 10.3288 11.4515 10.1091 11.6713C9.88929 11.8911 9.76582 12.1892 9.76582 12.5C9.76582 12.8108 9.88929 13.1088 10.1091 13.3286C10.3288 13.5484 10.6269 13.6718 10.9377 13.6718ZM35.9377 37.8906H33.9846V35.9375C33.9846 35.6267 33.8611 35.3286 33.6413 35.1088C33.4216 34.889 33.1235 34.7656 32.8127 34.7656C32.5019 34.7656 32.2038 34.889 31.9841 35.1088C31.7643 35.3286 31.6408 35.6267 31.6408 35.9375V37.8906H29.6877C29.3769 37.8906 29.0788 38.014 28.8591 38.2338C28.6393 38.4536 28.5158 38.7517 28.5158 39.0625C28.5158 39.3733 28.6393 39.6713 28.8591 39.8911C29.0788 40.1109 29.3769 40.2343 29.6877 40.2343H31.6408V42.1875C31.6408 42.4983 31.7643 42.7963 31.9841 43.0161C32.2038 43.2359 32.5019 43.3593 32.8127 43.3593C33.1235 43.3593 33.4216 43.2359 33.6413 43.0161C33.8611 42.7963 33.9846 42.4983 33.9846 42.1875V40.2343H35.9377C36.2485 40.2343 36.5466 40.1109 36.7663 39.8911C36.9861 39.6713 37.1096 39.3733 37.1096 39.0625C37.1096 38.7517 36.9861 38.4536 36.7663 38.2338C36.5466 38.014 36.2485 37.8906 35.9377 37.8906ZM42.5588 15.3496L15.3479 42.5585C15.0939 42.8125 14.7925 43.0139 14.4607 43.1514C14.129 43.2888 13.7734 43.3595 13.4143 43.3595C13.0552 43.3595 12.6996 43.2888 12.3678 43.1514C12.036 43.0139 11.7346 42.8125 11.4807 42.5585L7.43965 38.5175C7.18571 38.2636 6.98427 37.9622 6.84684 37.6304C6.70941 37.2986 6.63867 36.943 6.63867 36.5839C6.63867 36.2248 6.70941 35.8692 6.84684 35.5375C6.98427 35.2057 7.18571 34.9043 7.43965 34.6503L34.6506 7.44136C34.9045 7.18742 35.2059 6.98598 35.5377 6.84855C35.8695 6.71112 36.2251 6.64038 36.5842 6.64038C36.9433 6.64038 37.2989 6.71112 37.6306 6.84855C37.9624 6.98598 38.2639 7.18742 38.5178 7.44136L42.5588 11.4824C42.8127 11.7363 43.0142 12.0377 43.1516 12.3695C43.289 12.7013 43.3598 13.0569 43.3598 13.416C43.3598 13.7751 43.289 14.1307 43.1516 14.4624C43.0142 14.7942 42.8127 15.0956 42.5588 15.3496ZM32.717 21.875L28.1252 17.2832L9.09785 36.3085C9.06153 36.3448 9.03272 36.3879 9.01306 36.4353C8.99341 36.4827 8.98329 36.5336 8.98329 36.5849C8.98329 36.6362 8.99341 36.6871 9.01306 36.7345C9.03272 36.7819 9.06153 36.825 9.09785 36.8613L13.1389 40.9003C13.2121 40.9731 13.3111 41.0139 13.4143 41.0139C13.5175 41.0139 13.6165 40.9731 13.6896 40.9003L32.717 21.875ZM40.9006 13.1386L36.8615 9.09956C36.8252 9.06324 36.7822 9.03443 36.7347 9.01477C36.6873 8.99512 36.6365 8.985 36.5852 8.985C36.5338 8.985 36.483 8.99512 36.4356 9.01477C36.3881 9.03443 36.3451 9.06324 36.3088 9.09956L29.7814 15.625L34.3752 20.2187L40.9006 13.6914C40.9369 13.6551 40.9657 13.612 40.9854 13.5646C41.005 13.5172 41.0152 13.4663 41.0152 13.415C41.0152 13.3637 41.005 13.3128 40.9854 13.2654C40.9657 13.218 40.9369 13.1749 40.9006 13.1386Z" stroke="white" stroke-width="3" mask="url(#path-1-outside-1_51_235)"/>
</svg>
