<svg width="501" height="100" viewBox="0 0 501 100" fill="none" xmlns="http://www.w3.org/2000/svg">
<rect x="0.5" width="500" height="100" rx="50" fill="#F76687"/>
<mask id="path-2-outside-1_51_227" maskUnits="userSpaceOnUse" x="101.639" y="29.6404" width="45" height="41" fill="black">
<rect fill="white" x="101.639" y="29.6404" width="45" height="41"/>
<path d="M145.047 54.6875C145.047 54.9983 144.924 55.2963 144.704 55.5161C144.484 55.7359 144.186 55.8593 143.875 55.8593H140.36V59.375C140.36 59.6858 140.236 59.9838 140.016 60.2036C139.797 60.4234 139.499 60.5468 139.188 60.5468C138.877 60.5468 138.579 60.4234 138.359 60.2036C138.139 59.9838 138.016 59.6858 138.016 59.375V55.8593H134.5C134.189 55.8593 133.891 55.7359 133.672 55.5161C133.452 55.2963 133.328 54.9983 133.328 54.6875C133.328 54.3767 133.452 54.0786 133.672 53.8588C133.891 53.639 134.189 53.5156 134.5 53.5156H138.016V50C138.016 49.6892 138.139 49.3911 138.359 49.1713C138.579 48.9515 138.877 48.8281 139.188 48.8281C139.499 48.8281 139.797 48.9515 140.016 49.1713C140.236 49.3911 140.36 49.6892 140.36 50V53.5156H143.875C144.186 53.5156 144.484 53.639 144.704 53.8588C144.924 54.0786 145.047 54.3767 145.047 54.6875ZM107.938 38.6718H111.453V42.1875C111.453 42.4983 111.577 42.7963 111.797 43.0161C112.016 43.2359 112.314 43.3593 112.625 43.3593C112.936 43.3593 113.234 43.2359 113.454 43.0161C113.674 42.7963 113.797 42.4983 113.797 42.1875V38.6718H117.313C117.623 38.6718 117.922 38.5484 118.141 38.3286C118.361 38.1088 118.485 37.8108 118.485 37.5C118.485 37.1892 118.361 36.8911 118.141 36.6713C117.922 36.4515 117.623 36.3281 117.313 36.3281H113.797V32.8125C113.797 32.5017 113.674 32.2036 113.454 31.9838C113.234 31.764 112.936 31.6406 112.625 31.6406C112.314 31.6406 112.016 31.764 111.797 31.9838C111.577 32.2036 111.453 32.5017 111.453 32.8125V36.3281H107.938C107.627 36.3281 107.329 36.4515 107.109 36.6713C106.889 36.8911 106.766 37.1892 106.766 37.5C106.766 37.8108 106.889 38.1088 107.109 38.3286C107.329 38.5484 107.627 38.6718 107.938 38.6718ZM132.938 62.8906H130.985V60.9375C130.985 60.6267 130.861 60.3286 130.641 60.1088C130.422 59.889 130.123 59.7656 129.813 59.7656C129.502 59.7656 129.204 59.889 128.984 60.1088C128.764 60.3286 128.641 60.6267 128.641 60.9375V62.8906H126.688C126.377 62.8906 126.079 63.014 125.859 63.2338C125.639 63.4536 125.516 63.7517 125.516 64.0625C125.516 64.3733 125.639 64.6713 125.859 64.8911C126.079 65.1109 126.377 65.2343 126.688 65.2343H128.641V67.1875C128.641 67.4983 128.764 67.7963 128.984 68.0161C129.204 68.2359 129.502 68.3593 129.813 68.3593C130.123 68.3593 130.422 68.2359 130.641 68.0161C130.861 67.7963 130.985 67.4983 130.985 67.1875V65.2343H132.938C133.248 65.2343 133.547 65.1109 133.766 64.8911C133.986 64.6713 134.11 64.3733 134.11 64.0625C134.11 63.7517 133.986 63.4536 133.766 63.2338C133.547 63.014 133.248 62.8906 132.938 62.8906ZM139.559 40.3496L112.348 67.5585C112.094 67.8125 111.792 68.0139 111.461 68.1514C111.129 68.2888 110.773 68.3595 110.414 68.3595C110.055 68.3595 109.7 68.2888 109.368 68.1514C109.036 68.0139 108.735 67.8125 108.481 67.5585L104.44 63.5175C104.186 63.2636 103.984 62.9622 103.847 62.6304C103.709 62.2986 103.639 61.943 103.639 61.5839C103.639 61.2248 103.709 60.8692 103.847 60.5375C103.984 60.2057 104.186 59.9043 104.44 59.6503L131.651 32.4414C131.905 32.1874 132.206 31.986 132.538 31.8485C132.869 31.7111 133.225 31.6404 133.584 31.6404C133.943 31.6404 134.299 31.7111 134.631 31.8485C134.962 31.986 135.264 32.1874 135.518 32.4414L139.559 36.4824C139.813 36.7363 140.014 37.0377 140.152 37.3695C140.289 37.7013 140.36 38.0569 140.36 38.416C140.36 38.7751 140.289 39.1307 140.152 39.4624C140.014 39.7942 139.813 40.0956 139.559 40.3496ZM129.717 46.875L125.125 42.2832L106.098 61.3085C106.062 61.3448 106.033 61.3879 106.013 61.4353C105.993 61.4827 105.983 61.5336 105.983 61.5849C105.983 61.6362 105.993 61.6871 106.013 61.7345C106.033 61.7819 106.062 61.825 106.098 61.8613L110.139 65.9003C110.212 65.9731 110.311 66.0139 110.414 66.0139C110.517 66.0139 110.616 65.9731 110.69 65.9003L129.717 46.875ZM137.901 38.1386L133.862 34.0996C133.825 34.0632 133.782 34.0344 133.735 34.0148C133.687 33.9951 133.636 33.985 133.585 33.985C133.534 33.985 133.483 33.9951 133.436 34.0148C133.388 34.0344 133.345 34.0632 133.309 34.0996L126.781 40.625L131.375 45.2187L137.901 38.6914C137.937 38.6551 137.966 38.612 137.985 38.5646C138.005 38.5172 138.015 38.4663 138.015 38.415C138.015 38.3637 138.005 38.3128 137.985 38.2654C137.966 38.218 137.937 38.1749 137.901 38.1386Z"/>
</mask>
<path d="M145.047 54.6875C145.047 54.9983 144.924 55.2963 144.704 55.5161C144.484 55.7359 144.186 55.8593 143.875 55.8593H140.36V59.375C140.36 59.6858 140.236 59.9838 140.016 60.2036C139.797 60.4234 139.499 60.5468 139.188 60.5468C138.877 60.5468 138.579 60.4234 138.359 60.2036C138.139 59.9838 138.016 59.6858 138.016 59.375V55.8593H134.5C134.189 55.8593 133.891 55.7359 133.672 55.5161C133.452 55.2963 133.328 54.9983 133.328 54.6875C133.328 54.3767 133.452 54.0786 133.672 53.8588C133.891 53.639 134.189 53.5156 134.5 53.5156H138.016V50C138.016 49.6892 138.139 49.3911 138.359 49.1713C138.579 48.9515 138.877 48.8281 139.188 48.8281C139.499 48.8281 139.797 48.9515 140.016 49.1713C140.236 49.3911 140.36 49.6892 140.36 50V53.5156H143.875C144.186 53.5156 144.484 53.639 144.704 53.8588C144.924 54.0786 145.047 54.3767 145.047 54.6875ZM107.938 38.6718H111.453V42.1875C111.453 42.4983 111.577 42.7963 111.797 43.0161C112.016 43.2359 112.314 43.3593 112.625 43.3593C112.936 43.3593 113.234 43.2359 113.454 43.0161C113.674 42.7963 113.797 42.4983 113.797 42.1875V38.6718H117.313C117.623 38.6718 117.922 38.5484 118.141 38.3286C118.361 38.1088 118.485 37.8108 118.485 37.5C118.485 37.1892 118.361 36.8911 118.141 36.6713C117.922 36.4515 117.623 36.3281 117.313 36.3281H113.797V32.8125C113.797 32.5017 113.674 32.2036 113.454 31.9838C113.234 31.764 112.936 31.6406 112.625 31.6406C112.314 31.6406 112.016 31.764 111.797 31.9838C111.577 32.2036 111.453 32.5017 111.453 32.8125V36.3281H107.938C107.627 36.3281 107.329 36.4515 107.109 36.6713C106.889 36.8911 106.766 37.1892 106.766 37.5C106.766 37.8108 106.889 38.1088 107.109 38.3286C107.329 38.5484 107.627 38.6718 107.938 38.6718ZM132.938 62.8906H130.985V60.9375C130.985 60.6267 130.861 60.3286 130.641 60.1088C130.422 59.889 130.123 59.7656 129.813 59.7656C129.502 59.7656 129.204 59.889 128.984 60.1088C128.764 60.3286 128.641 60.6267 128.641 60.9375V62.8906H126.688C126.377 62.8906 126.079 63.014 125.859 63.2338C125.639 63.4536 125.516 63.7517 125.516 64.0625C125.516 64.3733 125.639 64.6713 125.859 64.8911C126.079 65.1109 126.377 65.2343 126.688 65.2343H128.641V67.1875C128.641 67.4983 128.764 67.7963 128.984 68.0161C129.204 68.2359 129.502 68.3593 129.813 68.3593C130.123 68.3593 130.422 68.2359 130.641 68.0161C130.861 67.7963 130.985 67.4983 130.985 67.1875V65.2343H132.938C133.248 65.2343 133.547 65.1109 133.766 64.8911C133.986 64.6713 134.11 64.3733 134.11 64.0625C134.11 63.7517 133.986 63.4536 133.766 63.2338C133.547 63.014 133.248 62.8906 132.938 62.8906ZM139.559 40.3496L112.348 67.5585C112.094 67.8125 111.792 68.0139 111.461 68.1514C111.129 68.2888 110.773 68.3595 110.414 68.3595C110.055 68.3595 109.7 68.2888 109.368 68.1514C109.036 68.0139 108.735 67.8125 108.481 67.5585L104.44 63.5175C104.186 63.2636 103.984 62.9622 103.847 62.6304C103.709 62.2986 103.639 61.943 103.639 61.5839C103.639 61.2248 103.709 60.8692 103.847 60.5375C103.984 60.2057 104.186 59.9043 104.44 59.6503L131.651 32.4414C131.905 32.1874 132.206 31.986 132.538 31.8485C132.869 31.7111 133.225 31.6404 133.584 31.6404C133.943 31.6404 134.299 31.7111 134.631 31.8485C134.962 31.986 135.264 32.1874 135.518 32.4414L139.559 36.4824C139.813 36.7363 140.014 37.0377 140.152 37.3695C140.289 37.7013 140.36 38.0569 140.36 38.416C140.36 38.7751 140.289 39.1307 140.152 39.4624C140.014 39.7942 139.813 40.0956 139.559 40.3496ZM129.717 46.875L125.125 42.2832L106.098 61.3085C106.062 61.3448 106.033 61.3879 106.013 61.4353C105.993 61.4827 105.983 61.5336 105.983 61.5849C105.983 61.6362 105.993 61.6871 106.013 61.7345C106.033 61.7819 106.062 61.825 106.098 61.8613L110.139 65.9003C110.212 65.9731 110.311 66.0139 110.414 66.0139C110.517 66.0139 110.616 65.9731 110.69 65.9003L129.717 46.875ZM137.901 38.1386L133.862 34.0996C133.825 34.0632 133.782 34.0344 133.735 34.0148C133.687 33.9951 133.636 33.985 133.585 33.985C133.534 33.985 133.483 33.9951 133.436 34.0148C133.388 34.0344 133.345 34.0632 133.309 34.0996L126.781 40.625L131.375 45.2187L137.901 38.6914C137.937 38.6551 137.966 38.612 137.985 38.5646C138.005 38.5172 138.015 38.4663 138.015 38.415C138.015 38.3637 138.005 38.3128 137.985 38.2654C137.966 38.218 137.937 38.1749 137.901 38.1386Z" fill="white"/>
<path d="M145.047 54.6875C145.047 54.9983 144.924 55.2963 144.704 55.5161C144.484 55.7359 144.186 55.8593 143.875 55.8593H140.36V59.375C140.36 59.6858 140.236 59.9838 140.016 60.2036C139.797 60.4234 139.499 60.5468 139.188 60.5468C138.877 60.5468 138.579 60.4234 138.359 60.2036C138.139 59.9838 138.016 59.6858 138.016 59.375V55.8593H134.5C134.189 55.8593 133.891 55.7359 133.672 55.5161C133.452 55.2963 133.328 54.9983 133.328 54.6875C133.328 54.3767 133.452 54.0786 133.672 53.8588C133.891 53.639 134.189 53.5156 134.5 53.5156H138.016V50C138.016 49.6892 138.139 49.3911 138.359 49.1713C138.579 48.9515 138.877 48.8281 139.188 48.8281C139.499 48.8281 139.797 48.9515 140.016 49.1713C140.236 49.3911 140.36 49.6892 140.36 50V53.5156H143.875C144.186 53.5156 144.484 53.639 144.704 53.8588C144.924 54.0786 145.047 54.3767 145.047 54.6875ZM107.938 38.6718H111.453V42.1875C111.453 42.4983 111.577 42.7963 111.797 43.0161C112.016 43.2359 112.314 43.3593 112.625 43.3593C112.936 43.3593 113.234 43.2359 113.454 43.0161C113.674 42.7963 113.797 42.4983 113.797 42.1875V38.6718H117.313C117.623 38.6718 117.922 38.5484 118.141 38.3286C118.361 38.1088 118.485 37.8108 118.485 37.5C118.485 37.1892 118.361 36.8911 118.141 36.6713C117.922 36.4515 117.623 36.3281 117.313 36.3281H113.797V32.8125C113.797 32.5017 113.674 32.2036 113.454 31.9838C113.234 31.764 112.936 31.6406 112.625 31.6406C112.314 31.6406 112.016 31.764 111.797 31.9838C111.577 32.2036 111.453 32.5017 111.453 32.8125V36.3281H107.938C107.627 36.3281 107.329 36.4515 107.109 36.6713C106.889 36.8911 106.766 37.1892 106.766 37.5C106.766 37.8108 106.889 38.1088 107.109 38.3286C107.329 38.5484 107.627 38.6718 107.938 38.6718ZM132.938 62.8906H130.985V60.9375C130.985 60.6267 130.861 60.3286 130.641 60.1088C130.422 59.889 130.123 59.7656 129.813 59.7656C129.502 59.7656 129.204 59.889 128.984 60.1088C128.764 60.3286 128.641 60.6267 128.641 60.9375V62.8906H126.688C126.377 62.8906 126.079 63.014 125.859 63.2338C125.639 63.4536 125.516 63.7517 125.516 64.0625C125.516 64.3733 125.639 64.6713 125.859 64.8911C126.079 65.1109 126.377 65.2343 126.688 65.2343H128.641V67.1875C128.641 67.4983 128.764 67.7963 128.984 68.0161C129.204 68.2359 129.502 68.3593 129.813 68.3593C130.123 68.3593 130.422 68.2359 130.641 68.0161C130.861 67.7963 130.985 67.4983 130.985 67.1875V65.2343H132.938C133.248 65.2343 133.547 65.1109 133.766 64.8911C133.986 64.6713 134.11 64.3733 134.11 64.0625C134.11 63.7517 133.986 63.4536 133.766 63.2338C133.547 63.014 133.248 62.8906 132.938 62.8906ZM139.559 40.3496L112.348 67.5585C112.094 67.8125 111.792 68.0139 111.461 68.1514C111.129 68.2888 110.773 68.3595 110.414 68.3595C110.055 68.3595 109.7 68.2888 109.368 68.1514C109.036 68.0139 108.735 67.8125 108.481 67.5585L104.44 63.5175C104.186 63.2636 103.984 62.9622 103.847 62.6304C103.709 62.2986 103.639 61.943 103.639 61.5839C103.639 61.2248 103.709 60.8692 103.847 60.5375C103.984 60.2057 104.186 59.9043 104.44 59.6503L131.651 32.4414C131.905 32.1874 132.206 31.986 132.538 31.8485C132.869 31.7111 133.225 31.6404 133.584 31.6404C133.943 31.6404 134.299 31.7111 134.631 31.8485C134.962 31.986 135.264 32.1874 135.518 32.4414L139.559 36.4824C139.813 36.7363 140.014 37.0377 140.152 37.3695C140.289 37.7013 140.36 38.0569 140.36 38.416C140.36 38.7751 140.289 39.1307 140.152 39.4624C140.014 39.7942 139.813 40.0956 139.559 40.3496ZM129.717 46.875L125.125 42.2832L106.098 61.3085C106.062 61.3448 106.033 61.3879 106.013 61.4353C105.993 61.4827 105.983 61.5336 105.983 61.5849C105.983 61.6362 105.993 61.6871 106.013 61.7345C106.033 61.7819 106.062 61.825 106.098 61.8613L110.139 65.9003C110.212 65.9731 110.311 66.0139 110.414 66.0139C110.517 66.0139 110.616 65.9731 110.69 65.9003L129.717 46.875ZM137.901 38.1386L133.862 34.0996C133.825 34.0632 133.782 34.0344 133.735 34.0148C133.687 33.9951 133.636 33.985 133.585 33.985C133.534 33.985 133.483 33.9951 133.436 34.0148C133.388 34.0344 133.345 34.0632 133.309 34.0996L126.781 40.625L131.375 45.2187L137.901 38.6914C137.937 38.6551 137.966 38.612 137.985 38.5646C138.005 38.5172 138.015 38.4663 138.015 38.415C138.015 38.3637 138.005 38.3128 137.985 38.2654C137.966 38.218 137.937 38.1749 137.901 38.1386Z" stroke="white" stroke-width="3" mask="url(#path-2-outside-1_51_227)"/>
<path d="M176.44 61.22C176.44 60.82 176.48 60.4467 176.56 60.1C176.667 59.78 176.853 59.4867 177.12 59.22C177.387 58.98 177.76 58.78 178.24 58.62C178.72 58.4867 179.333 58.42 180.08 58.42H190.76V50.34H181.88C181.133 50.34 180.52 50.26 180.04 50.1C179.56 49.94 179.187 49.74 178.92 49.5C178.653 49.2333 178.467 48.94 178.36 48.62C178.28 48.2733 178.24 47.94 178.24 47.62C178.24 47.22 178.28 46.86 178.36 46.54C178.467 46.1933 178.653 45.9 178.92 45.66C179.187 45.3933 179.56 45.1933 180.04 45.06C180.52 44.9 181.133 44.82 181.88 44.82H183.6V36.06H182.08C181.333 36.06 180.72 35.98 180.24 35.82C179.76 35.66 179.387 35.46 179.12 35.22C178.853 34.9533 178.667 34.66 178.56 34.34C178.48 33.9933 178.44 33.66 178.44 33.34C178.44 32.94 178.48 32.58 178.56 32.26C178.667 31.9133 178.853 31.62 179.12 31.38C179.387 31.1133 179.76 30.9133 180.24 30.78C180.72 30.62 181.333 30.54 182.08 30.54H205.88C206.627 30.54 207.24 30.62 207.72 30.78C208.2 30.9133 208.573 31.1133 208.84 31.38C209.107 31.62 209.28 31.9133 209.36 32.26C209.467 32.58 209.52 32.94 209.52 33.34C209.52 33.66 209.467 33.9933 209.36 34.34C209.28 34.66 209.107 34.9533 208.84 35.22C208.573 35.46 208.2 35.66 207.72 35.82C207.24 35.98 206.627 36.06 205.88 36.06H204.36V44.82H206.08C206.827 44.82 207.44 44.9 207.92 45.06C208.4 45.1933 208.773 45.3933 209.04 45.66C209.307 45.9 209.48 46.1933 209.56 46.54C209.667 46.86 209.72 47.22 209.72 47.62C209.72 47.94 209.667 48.2733 209.56 48.62C209.48 48.94 209.307 49.2333 209.04 49.5C208.773 49.74 208.4 49.94 207.92 50.1C207.44 50.26 206.827 50.34 206.08 50.34H197.24V58.42H207.88C208.627 58.42 209.24 58.4867 209.72 58.62C210.2 58.78 210.573 58.98 210.84 59.22C211.107 59.4867 211.28 59.78 211.36 60.1C211.467 60.4467 211.52 60.82 211.52 61.22C211.52 61.54 211.467 61.86 211.36 62.18C211.28 62.5267 211.107 62.82 210.84 63.06C210.573 63.3267 210.2 63.54 209.72 63.7C209.24 63.86 208.627 63.94 207.88 63.94H180.08C179.333 63.94 178.72 63.86 178.24 63.7C177.76 63.54 177.387 63.3267 177.12 63.06C176.853 62.82 176.667 62.5267 176.56 62.18C176.48 61.86 176.44 61.54 176.44 61.22ZM190.08 44.82H197.88V36.06H190.08V44.82ZM215.968 33.3C215.968 32.9 216.008 32.54 216.088 32.22C216.194 31.8733 216.381 31.58 216.648 31.34C216.914 31.0733 217.288 30.8733 217.768 30.74C218.248 30.58 218.861 30.5 219.608 30.5H240.248C240.994 30.5 241.608 30.58 242.088 30.74C242.568 30.8733 242.941 31.0733 243.208 31.34C243.474 31.58 243.648 31.8733 243.728 32.22C243.834 32.54 243.888 32.9 243.888 33.3C243.888 33.62 243.834 33.9533 243.728 34.3C243.648 34.62 243.474 34.9133 243.208 35.18C242.941 35.42 242.568 35.62 242.088 35.78C241.608 35.94 240.994 36.02 240.248 36.02H233.648C233.648 37.0333 233.901 38.0333 234.408 39.02C234.941 39.98 235.648 40.8867 236.528 41.74C237.408 42.5667 238.408 43.3133 239.528 43.98C240.648 44.62 241.808 45.1133 243.008 45.46C244.021 45.7533 244.781 46.22 245.288 46.86C245.821 47.5 245.981 48.3133 245.768 49.3C245.528 50.34 244.914 51.0333 243.928 51.38C243.634 51.4867 243.328 51.5533 243.008 51.58C242.688 51.6067 242.368 51.58 242.048 51.5C240.848 51.2333 239.688 50.8333 238.568 50.3C237.448 49.7667 236.368 49.1533 235.328 48.46C234.314 47.7667 233.368 47.02 232.488 46.22C231.608 45.3933 230.821 44.5533 230.128 43.7C229.408 44.5267 228.608 45.34 227.728 46.14C226.848 46.9133 225.928 47.6333 224.968 48.3C224.008 48.9667 223.021 49.5533 222.008 50.06C220.994 50.5667 219.994 50.9533 219.008 51.22C218.634 51.3267 218.221 51.4067 217.768 51.46C217.341 51.4867 216.914 51.46 216.488 51.38C216.034 51.2733 215.608 51.0733 215.208 50.78C214.808 50.4867 214.514 50.0333 214.328 49.42C214.034 48.46 214.114 47.6467 214.568 46.98C215.021 46.2867 215.741 45.7533 216.728 45.38C217.874 44.9533 219.048 44.42 220.248 43.78C221.448 43.1133 222.528 42.38 223.488 41.58C224.448 40.78 225.234 39.9133 225.848 38.98C226.461 38.02 226.768 37.0333 226.768 36.02H219.608C218.861 36.02 218.248 35.94 217.768 35.78C217.288 35.62 216.914 35.42 216.648 35.18C216.381 34.9133 216.194 34.62 216.088 34.3C216.008 33.9533 215.968 33.62 215.968 33.3ZM212.448 61.22C212.448 60.82 212.488 60.4467 212.568 60.1C212.674 59.78 212.861 59.4867 213.128 59.22C213.394 58.98 213.768 58.78 214.248 58.62C214.728 58.4867 215.341 58.42 216.088 58.42H243.888C244.634 58.42 245.248 58.4867 245.728 58.62C246.208 58.78 246.581 58.98 246.848 59.22C247.114 59.4867 247.288 59.78 247.368 60.1C247.474 60.4467 247.528 60.82 247.528 61.22C247.528 61.54 247.474 61.86 247.368 62.18C247.288 62.5267 247.114 62.82 246.848 63.06C246.581 63.3267 246.208 63.54 245.728 63.7C245.248 63.86 244.634 63.94 243.888 63.94H216.088C215.341 63.94 214.728 63.86 214.248 63.7C213.768 63.54 213.394 63.3267 213.128 63.06C212.861 62.82 212.674 62.5267 212.568 62.18C212.488 61.86 212.448 61.54 212.448 61.22ZM261.568 38.98C261.568 38.58 261.608 38.22 261.688 37.9C261.794 37.58 261.981 37.3133 262.248 37.1C262.514 36.86 262.888 36.6867 263.368 36.58C263.848 36.4467 264.461 36.38 265.208 36.38H286.648C287.394 36.38 288.008 36.4467 288.488 36.58C288.968 36.6867 289.341 36.86 289.608 37.1C289.874 37.3133 290.048 37.58 290.128 37.9C290.234 38.22 290.288 38.58 290.288 38.98C290.288 39.3 290.234 39.62 290.128 39.94C290.048 40.2333 289.874 40.5 289.608 40.74C289.341 40.98 288.968 41.1667 288.488 41.3C288.008 41.4333 287.394 41.5 286.648 41.5H279.968C280.261 42.1133 280.688 42.6333 281.248 43.06C281.834 43.4867 282.501 43.8467 283.248 44.14C283.994 44.4067 284.821 44.6333 285.728 44.82C286.634 44.98 287.581 45.1 288.568 45.18C289.634 45.26 290.488 45.5533 291.128 46.06C291.768 46.54 292.021 47.2867 291.888 48.3C291.781 49.2067 291.434 49.8733 290.848 50.3C290.261 50.7 289.568 50.8733 288.768 50.82C286.128 50.6333 283.688 50.18 281.448 49.46C279.208 48.74 277.408 47.78 276.048 46.58C275.354 47.14 274.554 47.6467 273.648 48.1C272.768 48.5533 271.821 48.9533 270.808 49.3C269.794 49.62 268.728 49.9 267.608 50.14C266.514 50.3533 265.408 50.5133 264.288 50.62C263.888 50.6467 263.461 50.6467 263.008 50.62C262.554 50.5667 262.141 50.4733 261.768 50.34C261.394 50.18 261.061 49.9533 260.768 49.66C260.474 49.34 260.288 48.9133 260.208 48.38C260.048 47.3667 260.234 46.5933 260.768 46.06C261.328 45.5 262.114 45.14 263.128 44.98C264.088 44.8467 265.034 44.7 265.968 44.54C266.901 44.38 267.781 44.1667 268.608 43.9C269.434 43.6333 270.154 43.3133 270.768 42.94C271.408 42.5667 271.914 42.0867 272.288 41.5H265.208C264.461 41.5 263.848 41.4333 263.368 41.3C262.888 41.1667 262.514 40.98 262.248 40.74C261.981 40.5 261.794 40.2333 261.688 39.94C261.608 39.62 261.568 39.3 261.568 38.98ZM258.448 54.78C258.448 54.38 258.488 54.02 258.568 53.7C258.674 53.38 258.861 53.1 259.128 52.86C259.394 52.62 259.768 52.4333 260.248 52.3C260.728 52.1667 261.341 52.1 262.088 52.1H289.888C290.634 52.1 291.248 52.1667 291.728 52.3C292.208 52.4333 292.581 52.62 292.848 52.86C293.114 53.1 293.288 53.38 293.368 53.7C293.474 54.02 293.528 54.38 293.528 54.78C293.528 55.1 293.474 55.42 293.368 55.74C293.288 56.06 293.114 56.34 292.848 56.58C292.581 56.82 292.208 57.02 291.728 57.18C291.248 57.3133 290.634 57.38 289.888 57.38H279.248V60.9C279.248 61.5933 279.154 62.1667 278.968 62.62C278.781 63.0733 278.541 63.4333 278.248 63.7C277.954 63.9667 277.608 64.1533 277.208 64.26C276.834 64.3667 276.434 64.42 276.008 64.42C275.581 64.42 275.168 64.3667 274.768 64.26C274.394 64.1533 274.048 63.9667 273.728 63.7C273.434 63.4333 273.194 63.0733 273.008 62.62C272.848 62.1667 272.768 61.5933 272.768 60.9V57.38H262.088C261.341 57.38 260.728 57.3133 260.248 57.18C259.768 57.02 259.394 56.82 259.128 56.58C258.861 56.34 258.674 56.06 258.568 55.74C258.488 55.42 258.448 55.1 258.448 54.78ZM266.688 32.3C266.688 31.66 266.821 31.1133 267.088 30.66C267.381 30.2067 267.994 29.98 268.928 29.98H282.128C283.061 29.98 283.661 30.2067 283.928 30.66C284.221 31.1133 284.368 31.66 284.368 32.3C284.368 32.5667 284.328 32.8333 284.248 33.1C284.194 33.3667 284.088 33.6067 283.928 33.82C283.768 34.0333 283.541 34.2067 283.248 34.34C282.954 34.4733 282.581 34.54 282.128 34.54H268.928C268.474 34.54 268.101 34.4733 267.808 34.34C267.514 34.2067 267.288 34.0333 267.128 33.82C266.968 33.6067 266.848 33.3667 266.768 33.1C266.714 32.8333 266.688 32.5667 266.688 32.3ZM294.816 38.7C294.816 37.9267 295.029 37.3267 295.456 36.9C295.882 36.4733 296.749 36.26 298.056 36.26H310.736C312.042 36.26 312.909 36.4733 313.336 36.9C313.762 37.3267 313.976 37.9267 313.976 38.7C313.976 39.3667 313.762 39.9267 313.336 40.38C312.909 40.8333 312.042 41.06 310.736 41.06H308.096C308.202 41.86 308.389 42.5267 308.656 43.06C308.949 43.5933 309.296 44.06 309.696 44.46C310.096 44.8333 310.536 45.1667 311.016 45.46C311.522 45.7267 312.056 45.9933 312.616 46.26C313.549 46.74 314.176 47.3133 314.496 47.98C314.842 48.6467 314.829 49.4333 314.456 50.34C314.242 50.82 313.936 51.1933 313.536 51.46C313.162 51.7 312.736 51.86 312.256 51.94C311.962 51.9667 311.642 51.9533 311.296 51.9C310.976 51.8467 310.669 51.74 310.376 51.58C309.602 51.18 308.736 50.6067 307.776 49.86C306.816 49.0867 305.896 48.2067 305.016 47.22C303.496 49.0333 301.696 50.46 299.616 51.5C299.242 51.6867 298.842 51.8467 298.416 51.98C298.016 52.0867 297.602 52.14 297.176 52.14C296.722 52.1133 296.256 52.0067 295.776 51.82C295.322 51.6333 294.949 51.2733 294.656 50.74C294.176 49.86 294.082 49.06 294.376 48.34C294.669 47.62 295.282 47.0333 296.216 46.58C296.989 46.2067 297.669 45.86 298.256 45.54C298.869 45.22 299.376 44.86 299.776 44.46C300.202 44.06 300.536 43.5933 300.776 43.06C301.042 42.5267 301.216 41.86 301.296 41.06H298.056C296.749 41.06 295.882 40.8333 295.456 40.38C295.029 39.9267 294.816 39.3667 294.816 38.7ZM303.216 59.34H323.376C324.122 59.34 324.736 59.42 325.216 59.58C325.696 59.74 326.069 59.94 326.336 60.18C326.602 60.4467 326.776 60.74 326.856 61.06C326.962 61.4067 327.016 61.74 327.016 62.06C327.016 62.46 326.962 62.82 326.856 63.14C326.776 63.4867 326.602 63.78 326.336 64.02C326.069 64.2867 325.696 64.4867 325.216 64.62C324.736 64.78 324.122 64.86 323.376 64.86H299.976C299.229 64.86 298.642 64.78 298.216 64.62C297.789 64.4867 297.456 64.2867 297.216 64.02C297.002 63.78 296.869 63.4867 296.816 63.14C296.762 62.82 296.736 62.46 296.736 62.06V57.5C296.736 56.8333 296.816 56.2867 296.976 55.86C297.162 55.4333 297.402 55.1 297.696 54.86C298.016 54.5933 298.362 54.42 298.736 54.34C299.136 54.2333 299.549 54.18 299.976 54.18C300.402 54.18 300.802 54.2333 301.176 54.34C301.576 54.42 301.922 54.5933 302.216 54.86C302.509 55.1 302.749 55.4333 302.936 55.86C303.122 56.2867 303.216 56.8333 303.216 57.5V59.34ZM319.856 46.62H317.016C316.269 46.62 315.669 46.5533 315.216 46.42C314.762 46.26 314.402 46.0467 314.136 45.78C313.896 45.5133 313.736 45.22 313.656 44.9C313.576 44.5533 313.536 44.18 313.536 43.78C313.536 43.46 313.576 43.14 313.656 42.82C313.736 42.4733 313.896 42.1667 314.136 41.9C314.402 41.6333 314.762 41.42 315.216 41.26C315.669 41.1 316.269 41.02 317.016 41.02H319.856V33.58C319.856 32.2467 320.176 31.34 320.816 30.86C321.482 30.3533 322.242 30.1 323.096 30.1C323.522 30.1 323.922 30.1533 324.296 30.26C324.696 30.3667 325.042 30.5533 325.336 30.82C325.629 31.0867 325.869 31.4467 326.056 31.9C326.242 32.3533 326.336 32.9133 326.336 33.58V51.1C326.336 51.7933 326.242 52.3667 326.056 52.82C325.869 53.2733 325.629 53.6333 325.336 53.9C325.042 54.1667 324.696 54.3533 324.296 54.46C323.922 54.5667 323.522 54.62 323.096 54.62C322.669 54.62 322.256 54.5667 321.856 54.46C321.482 54.3533 321.136 54.1667 320.816 53.9C320.522 53.6333 320.282 53.2733 320.096 52.82C319.936 52.3667 319.856 51.7933 319.856 51.1V46.62ZM297.256 32.06C297.256 31.7933 297.296 31.5267 297.376 31.26C297.456 30.9667 297.602 30.7133 297.816 30.5C298.056 30.26 298.362 30.0733 298.736 29.94C299.136 29.8067 299.656 29.74 300.296 29.74H308.856C309.496 29.74 310.002 29.8067 310.376 29.94C310.776 30.0733 311.082 30.26 311.296 30.5C311.536 30.7133 311.696 30.9667 311.776 31.26C311.856 31.5267 311.896 31.7933 311.896 32.06C311.896 32.3 311.856 32.5533 311.776 32.82C311.696 33.0867 311.536 33.34 311.296 33.58C311.082 33.7933 310.776 33.98 310.376 34.14C310.002 34.2733 309.496 34.34 308.856 34.34H300.296C299.656 34.34 299.136 34.2733 298.736 34.14C298.362 33.98 298.056 33.7933 297.816 33.58C297.602 33.34 297.456 33.0867 297.376 32.82C297.296 32.5533 297.256 32.3 297.256 32.06ZM358.463 50.86C359.21 50.86 359.823 50.94 360.303 51.1C360.783 51.26 361.157 51.4733 361.423 51.74C361.69 51.98 361.863 52.26 361.943 52.58C362.05 52.9 362.103 53.22 362.103 53.54C362.103 53.94 362.05 54.3133 361.943 54.66C361.863 54.98 361.69 55.26 361.423 55.5C361.157 55.74 360.783 55.9267 360.303 56.06C359.823 56.1933 359.21 56.26 358.463 56.26H338.543V59.46H358.463C359.21 59.46 359.823 59.54 360.303 59.7C360.783 59.86 361.157 60.06 361.423 60.3C361.69 60.5667 361.863 60.86 361.943 61.18C362.05 61.5 362.103 61.82 362.103 62.14C362.103 62.54 362.05 62.9 361.943 63.22C361.863 63.5667 361.69 63.86 361.423 64.1C361.157 64.34 360.783 64.5267 360.303 64.66C359.823 64.7933 359.21 64.86 358.463 64.86H335.303C334.557 64.86 333.97 64.78 333.543 64.62C333.117 64.4867 332.783 64.2867 332.543 64.02C332.33 63.78 332.197 63.4867 332.143 63.14C332.09 62.82 332.063 62.46 332.063 62.06V54.34C332.063 53.3267 332.317 52.5 332.823 51.86C333.357 51.1933 334.317 50.86 335.703 50.86H358.463ZM337.663 35.18H342.303V33.98C342.303 32.6467 342.623 31.74 343.263 31.26C343.93 30.7533 344.69 30.5 345.543 30.5C345.97 30.5 346.357 30.5533 346.703 30.66C347.077 30.7667 347.397 30.9533 347.663 31.22C347.957 31.4867 348.183 31.8467 348.343 32.3C348.503 32.7533 348.583 33.3133 348.583 33.98V45.54C348.583 45.94 348.557 46.3133 348.503 46.66C348.45 46.98 348.303 47.2733 348.063 47.54C347.85 47.78 347.53 47.98 347.103 48.14C346.677 48.2733 346.09 48.34 345.343 48.34H334.623C333.877 48.34 333.29 48.2733 332.863 48.14C332.437 47.98 332.103 47.78 331.863 47.54C331.65 47.2733 331.517 46.98 331.463 46.66C331.41 46.3133 331.383 45.94 331.383 45.54V33.98C331.383 32.6467 331.677 31.74 332.263 31.26C332.85 30.7533 333.57 30.5 334.423 30.5C334.85 30.5 335.25 30.5533 335.623 30.66C336.023 30.7667 336.37 30.9533 336.663 31.22C336.957 31.4867 337.197 31.8467 337.383 32.3C337.57 32.7533 337.663 33.3133 337.663 33.98V35.18ZM354.543 33.58C354.543 32.2467 354.863 31.34 355.503 30.86C356.17 30.3533 356.93 30.1 357.783 30.1C358.21 30.1 358.61 30.1533 358.983 30.26C359.383 30.3667 359.73 30.5533 360.023 30.82C360.317 31.0867 360.557 31.4467 360.743 31.9C360.93 32.3533 361.023 32.9133 361.023 33.58V36.66H364.063C364.81 36.66 365.423 36.7533 365.903 36.94C366.383 37.1 366.757 37.3133 367.023 37.58C367.29 37.8467 367.463 38.1533 367.543 38.5C367.65 38.82 367.703 39.14 367.703 39.46C367.703 39.86 367.65 40.2333 367.543 40.58C367.463 40.9267 367.29 41.2333 367.023 41.5C366.757 41.74 366.383 41.94 365.903 42.1C365.423 42.26 364.81 42.34 364.063 42.34H361.023V45.7C361.023 46.3933 360.93 46.9667 360.743 47.42C360.557 47.8733 360.317 48.2333 360.023 48.5C359.73 48.7667 359.383 48.9533 358.983 49.06C358.61 49.1667 358.21 49.22 357.783 49.22C357.357 49.22 356.943 49.1667 356.543 49.06C356.17 48.9533 355.823 48.7667 355.503 48.5C355.21 48.2333 354.97 47.8733 354.783 47.42C354.623 46.9667 354.543 46.3933 354.543 45.7V33.58ZM342.303 40.3H337.663V43.22H342.303V40.3ZM392.751 33.58C392.751 32.2467 393.071 31.34 393.711 30.86C394.378 30.3533 395.138 30.1 395.991 30.1C396.418 30.1 396.818 30.1533 397.191 30.26C397.591 30.3667 397.938 30.5533 398.231 30.82C398.525 31.0867 398.765 31.4467 398.951 31.9C399.138 32.3533 399.231 32.9133 399.231 33.58V60.9C399.231 61.5933 399.138 62.1667 398.951 62.62C398.765 63.0733 398.525 63.4333 398.231 63.7C397.938 63.9667 397.591 64.1533 397.191 64.26C396.818 64.3667 396.418 64.42 395.991 64.42C395.565 64.42 395.151 64.3667 394.751 64.26C394.378 64.1533 394.031 63.9667 393.711 63.7C393.418 63.4333 393.178 63.0733 392.991 62.62C392.831 62.1667 392.751 61.5933 392.751 60.9V33.58ZM380.351 30.58C381.071 30.58 381.631 30.66 382.031 30.82C382.431 30.9533 382.738 31.1533 382.951 31.42C383.165 31.66 383.298 31.9667 383.351 32.34C383.405 32.7133 383.431 33.14 383.431 33.62V49.3C383.431 49.8333 383.391 50.5 383.311 51.3C383.231 52.1 383.098 52.9667 382.911 53.9C382.725 54.8333 382.471 55.7933 382.151 56.78C381.858 57.7667 381.485 58.7 381.031 59.58C380.578 60.46 380.045 61.26 379.431 61.98C378.845 62.7 378.165 63.26 377.391 63.66C376.591 64.06 375.858 64.14 375.191 63.9C374.551 63.66 374.018 63.3133 373.591 62.86C373.325 62.62 373.138 62.3133 373.031 61.94C372.925 61.5933 372.885 61.22 372.911 60.82C372.938 60.42 373.018 60.0067 373.151 59.58C373.311 59.18 373.511 58.8067 373.751 58.46C374.391 57.5533 374.911 56.7 375.311 55.9C375.711 55.0733 376.018 54.26 376.231 53.46C376.445 52.6333 376.591 51.7667 376.671 50.86C376.751 49.9533 376.791 48.94 376.791 47.82V36.1H369.591C368.845 36.1 368.231 36.0333 367.751 35.9C367.271 35.74 366.898 35.54 366.631 35.3C366.365 35.0333 366.178 34.74 366.071 34.42C365.991 34.0733 365.951 33.7 365.951 33.3C365.951 32.98 365.991 32.66 366.071 32.34C366.178 31.9933 366.365 31.7 366.631 31.46C366.898 31.1933 367.271 30.98 367.751 30.82C368.231 30.66 368.845 30.58 369.591 30.58H380.351Z" fill="white"/>
</svg>
